<svg xmlns="http://www.w3.org/2000/svg" xmlns:xlink="http://www.w3.org/1999/xlink" width="500" zoomAndPan="magnify" viewBox="0 0 375 374.999991" height="500" preserveAspectRatio="xMidYMid meet" version="1.0"><defs><g/><clipPath id="id1"><path d="M 0 0 L 18 0 L 18 288 L 0 288 Z M 0 0 " clip-rule="nonzero"/></clipPath><clipPath id="id2"><path d="M 42 0 L 187.648438 0 L 187.648438 288 L 42 288 Z M 42 0 " clip-rule="nonzero"/></clipPath><clipPath id="id3"><path d="M 170.019531 0 L 374.769531 0 L 374.769531 288 L 170.019531 288 Z M 170.019531 0 " clip-rule="nonzero"/></clipPath></defs><g clip-path="url(#id1)"><path fill="#5e17eb" d="M -8.589844 288.054688 L 17.808594 288.054688 L 17.808594 0.015625 L -8.589844 0.015625 L -8.589844 288.054688 " fill-opacity="1" fill-rule="nonzero"/></g><g clip-path="url(#id2)"><path fill="#5e17eb" d="M 125.363281 157.238281 L 161.058594 157.238281 L 161.058594 203.746094 Z M 161.058594 0.015625 L 161.058594 130.832031 L 42.882812 130.832031 L 42.882812 157.238281 L 92.082031 157.238281 L 161.058594 247.101562 L 161.058594 288.054688 L 187.457031 288.054688 L 187.457031 0.015625 L 161.058594 0.015625 " fill-opacity="1" fill-rule="nonzero"/></g><path fill="#5e17eb" d="M 298.117188 177.316406 C 290.457031 177.316406 284.246094 183.542969 284.246094 191.21875 C 284.246094 198.894531 290.457031 205.121094 298.117188 205.121094 C 305.777344 205.121094 311.988281 198.894531 311.988281 191.21875 C 311.988281 183.542969 305.777344 177.316406 298.117188 177.316406 " fill-opacity="1" fill-rule="nonzero"/><g clip-path="url(#id3)"><path fill="#5e17eb" d="M 278.25 262.617188 L 195.363281 262.617188 L 195.363281 119.816406 L 278.25 119.816406 C 317.53125 119.816406 349.492188 151.847656 349.492188 191.21875 C 349.492188 230.585938 317.53125 262.617188 278.25 262.617188 Z M 195.363281 49.898438 L 229.535156 94.496094 L 195.363281 94.496094 Z M 325.910156 59.886719 C 325.910156 78.96875 310.417969 94.496094 291.378906 94.496094 L 261.390625 94.496094 L 208.359375 25.28125 L 291.378906 25.28125 C 310.417969 25.28125 325.910156 40.804688 325.910156 59.886719 Z M 327.167969 107.871094 C 341.730469 96.933594 351.175781 79.492188 351.175781 59.886719 C 351.175781 26.84375 324.351562 -0.0429688 291.378906 -0.0429688 L 170.097656 -0.0429688 L 170.097656 287.941406 L 278.25 287.941406 C 331.464844 287.941406 374.761719 244.550781 374.761719 191.21875 C 374.761719 155.765625 355.625 124.710938 327.167969 107.871094 " fill-opacity="1" fill-rule="nonzero"/></g><g fill="#5e17eb" fill-opacity="1"><g transform="translate(112.817957, 329.515906)"><g><path d="M 14.179688 -19.558594 L 14.179688 -11.703125 L 6.226562 -11.703125 L 6.226562 -19.558594 L 1.921875 -19.558594 L 1.921875 0 L 6.226562 0 L 6.226562 -7.886719 L 14.179688 -7.886719 L 14.179688 0 L 18.449219 0 L 18.449219 -19.558594 Z M 14.179688 -19.558594 "/></g></g></g><g fill="#5e17eb" fill-opacity="1"><g transform="translate(134.36865, 329.515906)"><g><path d="M 13.855469 -15.777344 L 13.855469 -19.558594 L 2.085938 -19.558594 L 2.085938 0 L 13.855469 0 L 13.855469 -3.78125 L 6.390625 -3.78125 L 6.390625 -7.886719 L 12.777344 -7.886719 L 12.777344 -11.667969 L 6.390625 -11.667969 L 6.390625 -15.777344 Z M 13.855469 -15.777344 "/></g></g></g><g fill="#5e17eb" fill-opacity="1"><g transform="translate(150.704499, 329.515906)"><g><path d="M 15.972656 -19.558594 L 15.972656 -6.617188 L 6.355469 -19.558594 L 1.921875 -19.558594 L 1.921875 0 L 6.226562 0 L 6.226562 -12.972656 L 15.808594 0 L 20.242188 0 L 20.242188 -19.558594 Z M 15.972656 -19.558594 "/></g></g></g><g fill="#5e17eb" fill-opacity="1"><g transform="translate(174.047792, 329.515906)"><g><path d="M 12.125 -8.050781 C 14.441406 -8.734375 16.070312 -10.886719 16.070312 -13.558594 C 16.070312 -16.886719 13.59375 -19.558594 10.234375 -19.558594 L 1.921875 -19.558594 L 1.921875 0 L 6.226562 0 L 6.226562 -7.5625 L 7.953125 -7.5625 L 12.777344 0 L 17.601562 0 Z M 9.582031 -11.117188 L 6.226562 -11.117188 L 6.226562 -15.746094 L 9.582031 -15.746094 C 10.953125 -15.746094 11.964844 -14.765625 11.964844 -13.429688 C 11.964844 -12.0625 10.953125 -11.117188 9.582031 -11.117188 Z M 9.582031 -11.117188 "/></g></g></g><g fill="#5e17eb" fill-opacity="1"><g transform="translate(192.632544, 329.515906)"><g><path d="M 2.085938 0 L 6.390625 0 L 6.390625 -19.558594 L 2.085938 -19.558594 Z M 2.085938 0 "/></g></g></g><g fill="#5e17eb" fill-opacity="1"><g transform="translate(202.221691, 329.515906)"><g><path d="M 22.035156 -3.097656 L 20.078125 -3.097656 L 17.636719 -2.019531 C 19.851562 -3.847656 21.285156 -6.648438 21.285156 -9.777344 C 21.285156 -15.320312 16.820312 -19.820312 11.246094 -19.820312 C 5.703125 -19.820312 1.207031 -15.320312 1.207031 -9.777344 C 1.207031 -4.238281 5.703125 0.261719 11.246094 0.261719 C 12.027344 0.261719 12.8125 0.164062 13.527344 0 L 22.035156 0 Z M 5.445312 -9.777344 C 5.445312 -13.070312 7.953125 -15.613281 11.246094 -15.613281 C 14.570312 -15.613281 17.082031 -13.070312 17.082031 -9.777344 C 17.082031 -6.488281 14.570312 -3.945312 11.246094 -3.945312 C 7.953125 -3.945312 5.445312 -6.488281 5.445312 -9.777344 Z M 5.445312 -9.777344 "/></g></g></g><g fill="#5e17eb" fill-opacity="1"><g transform="translate(225.923503, 329.515906)"><g><path d="M 9.941406 0.261719 C 14.570312 0.261719 18.089844 -2.574219 18.089844 -6.257812 L 18.089844 -19.558594 L 13.789062 -19.558594 L 13.789062 -7.074219 C 13.789062 -5.085938 12.125 -3.554688 9.941406 -3.554688 C 7.789062 -3.554688 6.128906 -5.085938 6.128906 -7.074219 L 6.128906 -19.558594 L 1.824219 -19.558594 L 1.824219 -6.257812 C 1.824219 -2.574219 5.378906 0.261719 9.941406 0.261719 Z M 9.941406 0.261719 "/></g></g></g><g fill="#5e17eb" fill-opacity="1"><g transform="translate(246.985299, 329.515906)"><g><path d="M 13.855469 -15.777344 L 13.855469 -19.558594 L 2.085938 -19.558594 L 2.085938 0 L 13.855469 0 L 13.855469 -3.78125 L 6.390625 -3.78125 L 6.390625 -7.886719 L 12.777344 -7.886719 L 12.777344 -11.667969 L 6.390625 -11.667969 L 6.390625 -15.777344 Z M 13.855469 -15.777344 "/></g></g></g><g fill="#5e17eb" fill-opacity="1"><g transform="translate(137.520681, 353.981291)"><g><path d="M 1.59375 -12.140625 L 6.875 -12.140625 C 8.132812 -12.140625 9.125 -11.867188 9.84375 -11.328125 C 10.570312 -10.796875 10.9375 -10.054688 10.9375 -9.109375 C 10.9375 -8.421875 10.742188 -7.835938 10.359375 -7.359375 C 9.984375 -6.878906 9.46875 -6.5625 8.8125 -6.40625 C 9.625 -6.257812 10.257812 -5.914062 10.71875 -5.375 C 11.175781 -4.832031 11.40625 -4.148438 11.40625 -3.328125 C 11.40625 -2.285156 11.007812 -1.46875 10.21875 -0.875 C 9.4375 -0.289062 8.359375 0 6.984375 0 L 1.59375 0 Z M 3.640625 -10.3125 L 3.640625 -7.109375 L 6.765625 -7.109375 C 7.410156 -7.109375 7.914062 -7.253906 8.28125 -7.546875 C 8.65625 -7.835938 8.84375 -8.234375 8.84375 -8.734375 C 8.84375 -9.242188 8.660156 -9.632812 8.296875 -9.90625 C 7.929688 -10.175781 7.421875 -10.3125 6.765625 -10.3125 Z M 3.640625 -5.3125 L 3.640625 -1.828125 L 6.765625 -1.828125 C 7.578125 -1.828125 8.203125 -1.976562 8.640625 -2.28125 C 9.085938 -2.582031 9.3125 -3.019531 9.3125 -3.59375 C 9.3125 -4.125 9.082031 -4.539062 8.625 -4.84375 C 8.175781 -5.15625 7.554688 -5.3125 6.765625 -5.3125 Z M 3.640625 -5.3125 "/></g></g></g><g fill="#5e17eb" fill-opacity="1"><g transform="translate(154.101245, 353.981291)"><g><path d="M 9.4375 -2.734375 L 3.3125 -2.734375 L 2.15625 0 L 0.015625 0 L 5.375 -12.140625 L 7.46875 -12.140625 L 12.78125 0 L 10.59375 0 Z M 8.65625 -4.5625 L 6.359375 -9.953125 L 4.078125 -4.5625 Z M 8.65625 -4.5625 "/></g></g></g><g fill="#5e17eb" fill-opacity="1"><g transform="translate(171.23675, 353.981291)"><g><path d="M 9.890625 -10.296875 L 6.03125 -10.296875 L 6.03125 0 L 3.984375 0 L 3.984375 -10.296875 L 0.15625 -10.296875 L 0.15625 -12.140625 L 9.890625 -12.140625 Z M 9.890625 -10.296875 "/></g></g></g><g fill="#5e17eb" fill-opacity="1"><g transform="translate(185.614882, 353.981291)"><g><path d="M 3.640625 0 L 1.59375 0 L 1.59375 -12.140625 L 3.640625 -12.140625 Z M 3.640625 0 "/></g></g></g><g fill="#5e17eb" fill-opacity="1"><g transform="translate(195.189323, 353.981291)"><g><path d="M 5.578125 -12.234375 C 7.148438 -12.234375 8.566406 -11.816406 9.828125 -10.984375 L 8.984375 -9.171875 C 7.742188 -9.921875 6.554688 -10.296875 5.421875 -10.296875 C 4.816406 -10.296875 4.335938 -10.1875 3.984375 -9.96875 C 3.628906 -9.75 3.453125 -9.4375 3.453125 -9.03125 C 3.453125 -8.625 3.613281 -8.28125 3.9375 -8 C 4.257812 -7.71875 4.660156 -7.507812 5.140625 -7.375 C 5.628906 -7.25 6.15625 -7.082031 6.71875 -6.875 C 7.289062 -6.675781 7.816406 -6.460938 8.296875 -6.234375 C 8.785156 -6.003906 9.1875 -5.648438 9.5 -5.171875 C 9.820312 -4.691406 9.984375 -4.113281 9.984375 -3.4375 C 9.984375 -2.375 9.554688 -1.523438 8.703125 -0.890625 C 7.859375 -0.253906 6.757812 0.0625 5.40625 0.0625 C 4.488281 0.0625 3.59375 -0.109375 2.71875 -0.453125 C 1.851562 -0.796875 1.097656 -1.265625 0.453125 -1.859375 L 1.328125 -3.625 C 1.941406 -3.0625 2.613281 -2.625 3.34375 -2.3125 C 4.082031 -2.007812 4.785156 -1.859375 5.453125 -1.859375 C 6.160156 -1.859375 6.710938 -1.988281 7.109375 -2.25 C 7.515625 -2.507812 7.71875 -2.867188 7.71875 -3.328125 C 7.71875 -3.742188 7.554688 -4.09375 7.234375 -4.375 C 6.910156 -4.65625 6.503906 -4.863281 6.015625 -5 C 5.535156 -5.132812 5.007812 -5.296875 4.4375 -5.484375 C 3.875 -5.679688 3.347656 -5.882812 2.859375 -6.09375 C 2.378906 -6.3125 1.972656 -6.65625 1.640625 -7.125 C 1.316406 -7.601562 1.15625 -8.175781 1.15625 -8.84375 C 1.15625 -9.875 1.5625 -10.695312 2.375 -11.3125 C 3.1875 -11.925781 4.253906 -12.234375 5.578125 -12.234375 Z M 5.578125 -12.234375 "/></g></g></g><g fill="#5e17eb" fill-opacity="1"><g transform="translate(210.313174, 353.981291)"><g><path d="M 9.890625 -10.296875 L 6.03125 -10.296875 L 6.03125 0 L 3.984375 0 L 3.984375 -10.296875 L 0.15625 -10.296875 L 0.15625 -12.140625 L 9.890625 -12.140625 Z M 9.890625 -10.296875 "/></g></g></g><g fill="#5e17eb" fill-opacity="1"><g transform="translate(224.691306, 353.981291)"><g><path d="M 9.4375 -2.734375 L 3.3125 -2.734375 L 2.15625 0 L 0.015625 0 L 5.375 -12.140625 L 7.46875 -12.140625 L 12.78125 0 L 10.59375 0 Z M 8.65625 -4.5625 L 6.359375 -9.953125 L 4.078125 -4.5625 Z M 8.65625 -4.5625 "/></g></g></g></svg>